HIERARCHY
ROOT Hips
{
     OFFSET 19.75400 91.89740 -4.67708
     CHANNELS 6 Xposition Yposition Zposition Zrotation Xrotation Yrotation
     JOINT Spine
     {
          OFFSET -0.00000 11.89050 -0.00000
          CHANNELS 3 Zrotation Xrotation Yrotation
          JOINT Spine1
          {
               OFFSET -0.00000 25.65740 0.12766
               CHANNELS 3 Zrotation Xrotation Yrotation
               JOINT HEad
               {
                    OFFSET -0.00000 8.73416 0.01134
                    CHANNELS 3 Zrotation Xrotation Yrotation
                    End Site
                    {
                         OFFSET -0.29000 12.77420 2.51395
                    }
               }
               JOINT LeftShoulder1
               {
                    OFFSET 8.99000 -0.36225 -0.22000
                    CHANNELS 3 Zrotation Xrotation Yrotation
                    JOINT LeftArm
                    {
                         OFFSET 10.28270 -0.00338 0.32212
                         CHANNELS 3 Zrotation Xrotation Yrotation
                         JOINT LeftForeArm
                         {
                              OFFSET 32.76690 0.09914 -1.42434
                              CHANNELS 3 Zrotation Xrotation Yrotation
                              JOINT LeftHand
                              {
                                   OFFSET 27.56430 0.08536 1.02216
                                   CHANNELS 3 Zrotation Xrotation Yrotation
                                   End Site
                                   {
                                        OFFSET 16.74430 -0.60000 1.50291
                                   }
                              }
                         }
                    }
               }
               JOINT RightShoulder
               {
                    OFFSET -8.99000 -0.36225 -0.22000
                    CHANNELS 3 Zrotation Xrotation Yrotation
                    JOINT RightArm
                    {
                         OFFSET -10.28270 -0.00338 0.32212
                         CHANNELS 3 Zrotation Xrotation Yrotation
                         JOINT RightForeArm
                         {
                              OFFSET -32.89710 0.09914 -1.42434
                              CHANNELS 3 Zrotation Xrotation Yrotation
                              JOINT RightHand
                              {
                                   OFFSET -27.49210 0.08536 1.02216
                                   CHANNELS 3 Zrotation Xrotation Yrotation
                                   End Site
                                   {
                                        OFFSET -16.63120 -0.60000 1.50291
                                   }
                              }
                         }
                    }
               }
          }
     }
     JOINT LeftUpLeg
     {
          OFFSET 8.94580 -8.66707 0.10165
          CHANNELS 3 Zrotation Xrotation Yrotation
          JOINT LeftLeg
          {
               OFFSET 0.00000 -44.42270 1.37270
               CHANNELS 3 Zrotation Xrotation Yrotation
               JOINT LeftFoot
               {
                    OFFSET -0.25355 -42.09240 -1.46059
                    CHANNELS 3 Zrotation Xrotation Yrotation
                    JOINT LeftToes
                    {
                         OFFSET -0.04000 -4.41509 8.49910
                         CHANNELS 3 Zrotation Xrotation Yrotation
                         End Site
                         {
                              OFFSET 0.08000 -0.04745 9.77979
                         }
                    }
               }
          }
     }
     JOINT RightUpLeg
     {
          OFFSET -8.94580 -8.66707 0.10165
          CHANNELS 3 Zrotation Xrotation Yrotation
          JOINT RightLeg
          {
               OFFSET 0.00000 -44.42270 1.37270
               CHANNELS 3 Zrotation Xrotation Yrotation
               JOINT RightFoot
               {
                    OFFSET 0.25355 -42.09240 -1.46059
                    CHANNELS 3 Zrotation Xrotation Yrotation
                    JOINT RightToes
                    {
                         OFFSET 0.04000 -4.41509 8.49910
                         CHANNELS 3 Zrotation Xrotation Yrotation
                         End Site
                         {
                              OFFSET -0.08000 -0.13745 9.77979
                         }
                    }
               }
          }
     }
}
MOTION
Frames: 8
Frame Time: 0.01667
17.77080 94.22580 -12.61340 -7.26453 -11.00520 -33.11530 -2.35642 11.33760 -0.11658 -3.55571 22.40100 0.17054 1.01930 -9.37123 14.69960 -0.00000 0.00000 -0.00000 -127.86500 -57.80040 -115.12600 -39.39510 53.80450 -69.53980 22.61420 7.12044 -10.12430 9.42541 0.49849 1.04753 89.23470 -13.17230 79.16340 13.31520 31.49230 91.47080 17.07310 11.66190 7.08824 20.79250 -5.89678 -13.01570 -24.48520 6.56680 64.72760 -5.04182 10.80860 0.72909 7.01069 -15.93240 -59.99990 -16.92790 2.73613 2.76483 41.76530 10.61040 -42.65310 -36.16280 -4.03022 1.04565 6.48762 -34.39950 19.93390 
17.68920 94.16820 -12.74150 -7.21051 -11.04800 -33.22790 -2.26004 11.36020 -0.17514 -3.59516 22.44050 0.09830 0.91603 -9.42653 14.73490 -0.00000 0.00000 -0.00000 -127.90800 -57.65220 -115.14100 -39.35660 53.83230 -69.59640 22.59820 7.13171 -10.07710 9.60602 0.51465 1.13822 88.90530 -13.49500 78.61530 13.26340 31.48260 91.47900 17.21680 11.66560 7.01965 20.91070 -5.81976 -12.94810 -24.62240 6.35259 64.80350 -4.65334 10.95840 0.67180 6.90699 -16.23630 -59.92680 -16.76210 2.25207 2.67094 41.64480 11.47270 -42.66700 -36.09620 -4.30382 0.95201 6.43129 -34.30260 19.78560 
17.60400 94.10780 -12.86490 -7.16495 -11.06630 -33.37830 -2.19364 11.37840 -0.22540 -3.64576 22.46720 0.03870 0.87166 -9.47002 14.81260 -0.00000 0.00000 -0.00000 -127.99600 -57.55420 -115.23300 -39.35330 53.90210 -69.65340 22.60930 7.13496 -10.05310 9.85691 0.53354 1.23304 88.49160 -13.83520 77.94950 13.10840 31.45090 91.50450 17.38160 11.67380 6.96764 21.04870 -5.76006 -12.78880 -24.74640 6.20430 64.82640 -4.27278 11.13860 0.61575 6.77733 -16.61810 -59.83990 -16.56790 1.74414 2.61555 41.52760 12.33530 -42.64040 -36.06000 -4.61357 0.84753 6.26891 -34.08160 19.25340 
17.51950 94.03770 -12.98390 -7.11641 -11.05020 -33.56850 -2.16362 11.39070 -0.25888 -3.71821 22.47940 0.00785 0.86528 -9.53749 14.93410 -0.00000 0.00000 -0.00000 -128.10800 -57.45750 -115.37700 -39.36320 54.01800 -69.71400 22.65970 7.12592 -10.06580 10.23180 0.54940 1.27632 87.96080 -14.14510 77.18790 12.83800 31.38800 91.55470 17.54820 11.68510 6.93466 21.19610 -5.77230 -12.64610 -24.87160 6.14981 64.94370 -3.94440 11.32300 0.56725 6.62804 -17.07060 -59.81320 -16.37690 1.20599 2.60936 41.45570 13.15250 -42.66690 -36.12710 -4.96222 0.73295 6.07093 -33.82690 18.55940 
17.44030 93.94980 -13.10190 -7.05841 -10.99980 -33.79840 -2.15694 11.39650 -0.27999 -3.79596 22.47690 -0.00522 0.83193 -9.63497 15.09230 -0.00000 0.00000 -0.00000 -128.32899 -57.33380 -115.62000 -39.41390 54.19620 -69.73450 22.73920 7.10542 -10.11770 10.67100 0.55922 1.26058 87.34340 -14.41250 76.34890 12.47100 31.28510 91.62720 17.71410 11.69580 6.89868 21.36010 -5.87696 -12.58630 -25.03310 6.17775 65.27490 -3.67826 11.49140 0.52767 6.45918 -17.60220 -59.92940 -16.21040 0.63760 2.63727 41.44160 13.89810 -42.84790 -36.37360 -5.28472 0.63077 5.96603 -33.79200 18.02470 
17.36460 93.84290 -13.22720 -6.99124 -10.93240 -34.05990 -2.15999 11.39920 -0.31088 -3.83713 22.46630 -0.05138 0.72378 -9.76127 15.30900 -0.00000 0.00000 -0.00000 -128.81200 -57.21230 -116.07000 -39.54580 54.44560 -69.68660 22.83880 7.08027 -10.17940 11.00610 0.56725 1.25287 86.74900 -14.67260 75.44600 12.00920 31.15350 91.73570 17.85050 11.70220 6.85517 21.54620 -6.03240 -12.50760 -25.22800 6.26339 65.74940 -3.44291 11.67410 0.49283 6.26155 -18.23750 -60.23520 -16.06780 0.06315 2.66240 41.45490 14.56230 -43.23530 -36.85780 -5.49463 0.57026 6.06684 -34.25920 17.86560 
17.28610 93.72360 -13.36730 -6.91177 -10.87240 -34.34370 -2.17323 11.40370 -0.37086 -3.82155 22.45580 -0.17314 0.55537 -9.94711 15.60970 -0.00000 0.00000 -0.00000 -129.69200 -57.12270 -116.83800 -39.82200 54.77710 -69.53970 22.96060 7.05554 -10.22360 11.11790 0.57960 1.31873 86.28820 -14.98300 74.50190 11.44730 31.04040 91.90670 17.89270 11.70060 6.81944 21.73980 -6.17287 -12.24550 -25.41490 6.38582 66.18130 -3.20725 11.91830 0.45854 6.03133 -18.96920 -60.69030 -15.94530 -0.48890 2.65079 41.45390 15.15480 -43.80270 -37.57440 -5.55767 0.56350 6.40535 -35.31260 18.10170 
17.20230 93.59880 -13.51920 -6.81302 -10.82830 -34.65150 -2.19076 11.40980 -0.45898 -3.77138 22.44540 -0.36068 0.37728 -10.24190 15.97760 -0.00000 0.00000 -0.00000 -131.17000 -57.03120 -118.10100 -40.48440 55.27620 -69.09270 23.13540 7.02273 -10.27260 11.05430 0.59455 1.43726 85.98800 -15.38060 73.56370 10.81250 31.01070 92.15400 17.79130 11.68540 6.78723 21.92590 -6.27293 -11.80580 -25.58630 6.51438 66.51020 -2.96225 12.21150 0.42261 5.78024 -19.74030 -61.17470 -15.84460 -1.02937 2.57864 41.41930 15.74020 -44.45400 -38.39430 -5.51296 0.59647 6.92202 -36.75750 18.61270 
